<?xml version="1.0" encoding="UTF-8" standalone="no"?>
<!-- Created with Inkscape (http://www.inkscape.org/) -->

<svg
   width="210mm"
   height="297mm"
   viewBox="0 0 210 297"
   version="1.1"
   id="svg1"
   inkscape:version="1.3.2 (091e20ef0f, 2023-11-25, custom)"
   sodipodi:docname="robot_numbers.svg"
   xmlns:inkscape="http://www.inkscape.org/namespaces/inkscape"
   xmlns:sodipodi="http://sodipodi.sourceforge.net/DTD/sodipodi-0.dtd"
   xmlns="http://www.w3.org/2000/svg"
   xmlns:svg="http://www.w3.org/2000/svg">
  <sodipodi:namedview
     id="namedview1"
     pagecolor="#505050"
     bordercolor="#eeeeee"
     borderopacity="1"
     inkscape:showpageshadow="0"
     inkscape:pageopacity="0"
     inkscape:pagecheckerboard="0"
     inkscape:deskcolor="#505050"
     inkscape:document-units="mm"
     inkscape:zoom="0.70766663"
     inkscape:cx="690.29679"
     inkscape:cy="584.31468"
     inkscape:window-width="1920"
     inkscape:window-height="1011"
     inkscape:window-x="0"
     inkscape:window-y="0"
     inkscape:window-maximized="1"
     inkscape:current-layer="layer1" />
  <defs
     id="defs1">
    <rect
       x="157.45519"
       y="78.824192"
       width="40.670633"
       height="57.213778"
       id="rect2" />
    <rect
       x="79.003423"
       y="80.577609"
       width="626.97769"
       height="805.64924"
       id="rect1" />
    <rect
       x="79.003426"
       y="80.577606"
       width="731.87235"
       height="794.94614"
       id="rect1-7" />
  </defs>
  <g
     inkscape:label="Layer 1"
     inkscape:groupmode="layer"
     id="layer1">
    <path
       style="font-weight:bold;font-size:170.079px;line-height:0.85;font-family:'TheSans UHH';-inkscape-font-specification:'TheSans UHH Bold';letter-spacing:0px;word-spacing:0px;white-space:pre"
       d="M 106.5567,201.31298 V 108.79001 L 84.786592,116.61365 81.385012,97.054561 110.6386,86.509663 h 18.36853 V 201.31298 Z m 99.49639,0 v -92.52297 l -21.77011,7.82364 -3.40158,-19.559089 29.25358,-10.544898 h 18.36853 V 201.31298 Z m 80.10738,0 v -19.21892 l 17.34805,-19.55909 q 7.3134,-7.99371 12.07561,-14.28663 4.93229,-6.29292 7.82364,-11.22522 2.89134,-4.93229 4.08189,-9.01418 1.19055,-4.0819 1.19055,-7.82364 0,-6.80316 -4.25197,-11.05513 -4.25198,-4.42205 -12.07561,-4.42205 -5.27245,0 -10.88506,1.70079 -5.44252,1.70079 -10.03466,4.42205 l -3.57165,-19.389006 q 6.29292,-3.061422 13.77639,-4.762212 7.48348,-1.870869 16.15751,-1.870869 8.50395,0 15.13703,2.381106 6.63308,2.381106 11.05513,6.80316 4.42206,4.251975 6.63308,10.034661 2.21103,5.78269 2.21103,12.58585 0,5.44252 -1.70079,11.22521 -1.53071,5.78268 -4.93229,12.24569 -3.40158,6.29292 -8.67403,13.43624 -5.27245,7.14331 -12.75592,15.30711 l -10.5449,12.07561 0.17008,0.17007 q 7.99371,-0.51023 17.34806,-0.51023 9.35434,-0.17008 24.66145,-0.17008 v 20.91971 z m 122.28677,0 v -19.21892 l 17.34806,-19.55909 q 7.31339,-7.99371 12.07561,-14.28663 4.93229,-6.29292 7.82363,-11.22522 2.89134,-4.93229 4.08189,-9.01418 1.19056,-4.0819 1.19056,-7.82364 0,-6.80316 -4.25198,-11.05513 -4.25197,-4.42205 -12.07561,-4.42205 -5.27244,0 -10.88505,1.70079 -5.44253,1.70079 -10.03466,4.42205 l -3.57166,-19.389006 q 6.29292,-3.061422 13.7764,-4.762212 7.48347,-1.870869 16.1575,-1.870869 8.50395,0 15.13703,2.381106 6.63308,2.381106 11.05514,6.80316 4.42205,4.251975 6.63308,10.034661 2.21102,5.78269 2.21102,12.58585 0,5.44252 -1.70078,11.22521 -1.53072,5.78268 -4.9323,12.24569 -3.40158,6.29292 -8.67402,13.43624 -5.27245,7.14331 -12.75593,15.30711 l -10.5449,12.07561 0.17008,0.17007 q 7.99371,-0.51023 17.34806,-0.51023 9.35434,-0.17008 24.66145,-0.17008 v 20.91971 z m 189.63802,-35.54651 q 0,7.99372 -3.06142,14.96696 -3.06142,6.80316 -8.84411,11.90553 -5.78268,4.93229 -14.28663,7.65355 -8.33387,2.72126 -18.87877,2.72126 -6.12284,0 -12.07561,-0.68031 -5.78268,-0.68032 -10.88505,-1.87087 l 2.21102,-19.38901 q 10.88506,3.23151 20.40948,3.23151 10.88506,0 16.32759,-4.59214 5.44252,-4.76221 5.44252,-12.24569 0,-3.74173 -1.53071,-6.80316 -1.36063,-3.06142 -4.42205,-5.27244 -3.06142,-2.21103 -7.82363,-3.40158 -4.76222,-1.19056 -11.22522,-1.19056 -5.61261,0 -12.41577,0.68032 v -17.34806 h 3.40158 q 8.1638,0 13.94648,-1.19055 5.78269,-1.36063 9.35435,-3.57166 3.57166,-2.21103 5.27245,-5.27245 1.70079,-3.2315 1.70079,-7.14332 0,-6.463 -4.42206,-10.03466 -4.25197,-3.74174 -12.41576,-3.74174 -4.9323,0 -10.03467,1.19056 -5.10237,1.19055 -9.6945,3.2315 l -2.21102,-17.858296 q 6.29292,-2.381106 13.09608,-3.571659 6.97324,-1.360632 13.94648,-1.360632 8.50395,0 15.13703,2.040948 6.63308,2.040948 10.88505,5.782686 4.42206,3.741738 6.63308,8.844103 2.21103,4.9323 2.21103,11.05514 0,9.18427 -5.10237,15.98742 -5.10237,6.80316 -13.94648,10.03467 v 0.17007 q 10.5449,2.38111 16.83782,9.69451 6.463,7.31339 6.463,17.34805 z M 154.51898,317.96595 q 0,7.99372 -3.06142,14.96695 -3.06142,6.80316 -8.84411,11.90553 -5.78269,4.93229 -14.28664,7.65356 -8.33387,2.72126 -18.87876,2.72126 -6.12285,0 -12.075612,-0.68031 -5.782686,-0.68032 -10.885056,-1.87087 l 2.211027,-19.38901 q 10.885056,3.2315 20.409481,3.2315 10.88505,0 16.32758,-4.59213 5.44253,-4.76221 5.44253,-12.24569 0,-3.74174 -1.53071,-6.80316 -1.36063,-3.06142 -4.42206,-5.27245 -3.06142,-2.21102 -7.82363,-3.40158 -4.76221,-1.19055 -11.22521,-1.19055 -5.61261,0 -12.415769,0.68032 v -17.34806 h 3.40158 q 8.163789,0 13.946479,-1.19055 5.78268,-1.36064 9.35434,-3.57166 3.57166,-2.21103 5.27245,-5.27245 1.70079,-3.2315 1.70079,-7.14332 0,-6.463 -4.42205,-10.03466 -4.25198,-3.74174 -12.41577,-3.74174 -4.93229,0 -10.03466,1.19056 -5.102369,1.19055 -9.694502,3.2315 l -2.211027,-17.8583 q 6.292923,-2.3811 13.096079,-3.57166 6.97324,-1.36063 13.94648,-1.36063 8.50395,0 15.13703,2.04095 6.63308,2.04095 10.88506,5.78269 4.42205,3.74173 6.63308,8.8441 2.21103,4.93229 2.21103,11.05514 0,9.18426 -5.10237,15.98742 -5.10237,6.80316 -13.94648,10.03466 v 0.17008 q 10.5449,2.38111 16.83782,9.69451 6.463,7.31339 6.463,17.34805 z m 97.11505,-47.96227 0.17008,-14.79688 -29.76382,53.23473 q 3.57166,-0.17008 9.18426,-0.17008 5.78269,-0.17008 10.71498,-0.17008 4.93229,0 9.6945,0 z m 21.0898,57.65678 v 25.852 h -21.42996 v -25.852 h -47.79219 l -2.21103,-18.19846 39.79848,-70.75286 h 31.6347 v 69.39223 h 17.17798 v 19.55909 z m 110.38138,-57.65678 0.17008,-14.79688 -29.76383,53.23473 q 3.57166,-0.17008 9.18427,-0.17008 5.78269,-0.17008 10.71498,-0.17008 4.93229,0 9.6945,0 z m 21.08979,57.65678 v 25.852 h -21.42995 v -25.852 h -47.7922 L 332.76183,309.462 372.56031,238.70914 H 404.195 v 69.39223 h 17.17798 v 19.55909 z M 536.00635,315.925 q 0,8.67403 -3.2315,15.98743 -3.06142,7.14332 -9.01418,12.41577 -5.95277,5.27245 -14.28664,8.16379 -8.33387,2.72126 -18.70869,2.72126 -5.61261,0 -11.22521,-0.68031 -5.61261,-0.51024 -10.20474,-1.53071 l 2.3811,-19.55909 q 4.59214,1.53071 9.69451,2.38111 5.10237,0.68031 10.37481,0.68031 9.86459,0 15.47719,-4.59213 5.61261,-4.76221 5.61261,-13.26616 0,-8.84411 -6.80316,-13.60632 -6.63308,-4.76221 -20.2394,-4.76221 -6.12284,0 -12.75592,0.51023 v -62.07883 h 56.46622 v 20.74964 L 493.4866,259.2887 v 23.30082 h 2.89135 q 18.36853,0 28.91343,9.01419 10.71497,9.01419 10.71497,24.32129 z m 116.8443,0 q 0,8.67403 -3.2315,15.98743 -3.06142,7.14332 -9.01418,12.41577 -5.95277,5.27245 -14.28664,8.16379 -8.33387,2.72126 -18.70869,2.72126 -5.61261,0 -11.22521,-0.68031 -5.61261,-0.51024 -10.20474,-1.53071 l 2.3811,-19.55909 q 4.59214,1.53071 9.69451,2.38111 5.10237,0.68031 10.37481,0.68031 9.86459,0 15.47719,-4.59213 5.61261,-4.76221 5.61261,-13.26616 0,-8.84411 -6.80316,-13.60632 -6.63308,-4.76221 -20.2394,-4.76221 -6.12284,0 -12.75593,0.51023 v -62.07883 h 56.46623 v 20.74964 L 610.3309,259.2887 v 23.30082 h 2.89135 q 18.36853,0 28.91343,9.01419 10.71497,9.01419 10.71497,24.32129 z M 146.86543,470.33551 q 0,-8.33387 -4.76222,-13.60632 -4.76221,-5.44253 -13.26616,-5.44253 -8.16379,0 -13.09608,5.27245 -4.76221,5.10237 -4.76221,12.92601 0,9.35434 5.10237,14.45671 5.10237,5.10237 12.75592,5.10237 7.99371,0 12.92601,-5.27245 5.10237,-5.27245 5.10237,-13.43624 z m 22.79058,-2.89134 q 0,8.8441 -3.06142,16.32758 -3.06142,7.3134 -8.67403,12.75593 -5.61261,5.27244 -13.43624,8.16379 -7.65356,2.89134 -16.66774,2.89134 -11.22522,0 -19.21893,-3.91182 -7.99371,-4.08189 -12.926002,-11.22521 -4.762212,-7.14332 -6.973239,-16.32758 -2.040948,-9.35435 -2.040948,-20.57956 0,-16.49766 3.741738,-28.91343 3.911817,-12.41577 11.225211,-20.74964 7.3134,-8.33387 18.02838,-12.41577 10.88505,-4.25197 24.83153,-4.25197 3.91182,0 8.16379,0.34016 4.42205,0.17008 8.16379,0.68031 l -1.53071,19.38901 q -3.74174,-0.68032 -8.16379,-1.02048 -4.42205,-0.51023 -8.16379,-0.51023 -7.99371,0 -13.94648,2.04095 -5.78269,2.04094 -9.6945,5.95276 -4.25198,4.25198 -6.29292,9.52442 -2.04095,5.27245 -3.06143,11.3953 -1.02047,6.12284 -1.19055,6.63308 h 0.17008 q 3.91182,-4.59213 10.5449,-7.48348 6.80316,-2.89134 14.79687,-2.89134 8.16379,0 14.62679,2.55118 6.63308,2.38111 11.22522,6.97324 4.76221,4.59214 7.14331,10.88506 2.38111,6.29292 2.38111,13.7764 z m 111.40166,2.89134 q 0,-8.33387 -4.76221,-13.60632 -4.76221,-5.44253 -13.26616,-5.44253 -8.16379,0 -13.09609,5.27245 -4.76221,5.10237 -4.76221,12.92601 0,9.35434 5.10237,14.45671 5.10237,5.10237 12.75593,5.10237 7.99371,0 12.926,-5.27245 5.10237,-5.27245 5.10237,-13.43624 z m 22.79059,-2.89134 q 0,8.8441 -3.06143,16.32758 -3.06142,7.3134 -8.67402,12.75593 -5.61261,5.27244 -13.43625,8.16379 -7.65355,2.89134 -16.66774,2.89134 -11.22521,0 -19.21892,-3.91182 -7.99372,-4.08189 -12.92601,-11.22521 -4.76221,-7.14332 -6.97324,-16.32758 -2.04094,-9.35435 -2.04094,-20.57956 0,-16.49766 3.74173,-28.91343 3.91182,-12.41577 11.22522,-20.74964 7.31339,-8.33387 18.02837,-12.41577 10.88506,-4.25197 24.83153,-4.25197 3.91182,0 8.1638,0.34016 4.42205,0.17008 8.16379,0.68031 l -1.53071,19.38901 q -3.74174,-0.68032 -8.16379,-1.02048 -4.42206,-0.51023 -8.1638,-0.51023 -7.99371,0 -13.94647,2.04095 -5.78269,2.04094 -9.69451,5.95276 -4.25197,4.25198 -6.29292,9.52442 -2.04095,5.27245 -3.06142,11.3953 -1.02048,6.12284 -1.19055,6.63308 h 0.17007 q 3.91182,-4.59213 10.5449,-7.48348 6.80316,-2.89134 14.79688,-2.89134 8.16379,0 14.62679,2.55118 6.63308,2.38111 11.22521,6.97324 4.76221,4.59214 7.14332,10.88506 2.38111,6.29292 2.38111,13.7764 z"
       id="text1"
       transform="matrix(0.26458333,0,0,0.26458333,-7.2308063,-8.8329462)"
       aria-label="1 1 2 2 3 3 4 4 5 5 6 6" />
    <path
       style="font-weight:bold;font-size:245.669px;line-height:0.75;font-family:'TheSans UHH';-inkscape-font-specification:'TheSans UHH Bold';letter-spacing:0px;word-spacing:0px;white-space:pre"
       d="M 118.80229,242.68901 V 109.04507 L 87.356652,120.34584 82.443272,92.093905 124.69834,76.862426 h 26.53225 V 242.68901 Z m 143.71661,0 V 109.04507 l -31.44563,11.30077 -4.91338,-28.251935 42.25507,-15.231479 h 26.53225 V 242.68901 Z m 115.71035,0 v -27.7606 l 25.05823,-28.25194 q 10.56377,-11.54644 17.4425,-20.63619 7.12441,-9.08976 11.30078,-16.21416 4.17637,-7.1244 5.89605,-13.02046 1.71969,-5.89605 1.71969,-11.30077 0,-9.82676 -6.14173,-15.96849 -6.14172,-6.38739 -17.4425,-6.38739 -7.61574,0 -15.72281,2.45669 -7.86141,2.45669 -14.49447,6.38739 l -5.15905,-28.006262 q 9.08975,-4.422043 19.89919,-6.878733 10.80943,-2.702359 23.33855,-2.702359 12.28345,0 21.86454,3.439366 9.58109,3.439366 15.96849,9.826761 6.38739,6.141725 9.58109,14.494467 3.1937,8.35275 3.1937,18.17951 0,7.86141 -2.45669,16.21415 -2.21102,8.35275 -7.1244,17.68817 -4.91338,9.08976 -12.52912,19.40785 -7.61574,10.3181 -18.42518,22.11022 l -15.23148,17.44249 0.24567,0.24567 q 11.54644,-0.737 25.05824,-0.737 13.5118,-0.24567 35.62201,-0.24567 v 30.21729 z m 176.63598,0 v -27.7606 l 25.05824,-28.25194 q 10.56377,-11.54644 17.4425,-20.63619 7.1244,-9.08976 11.30077,-16.21416 4.17638,-7.1244 5.89606,-13.02046 1.71968,-5.89605 1.71968,-11.30077 0,-9.82676 -6.14172,-15.96849 -6.14173,-6.38739 -17.4425,-6.38739 -7.61574,0 -15.72282,2.45669 -7.86141,2.45669 -14.49447,6.38739 l -5.15905,-28.006262 q 9.08976,-4.422043 19.89919,-6.878733 10.80944,-2.702359 23.33856,-2.702359 12.28345,0 21.86454,3.439366 9.58109,3.439366 15.96848,9.826761 6.3874,6.141725 9.5811,14.494467 3.19369,8.35275 3.19369,18.17951 0,7.86141 -2.45669,16.21415 -2.21102,8.35275 -7.1244,17.68817 -4.91338,9.08976 -12.52912,19.40785 -7.61574,10.3181 -18.42517,22.11022 l -15.23148,17.44249 0.24567,0.24567 q 11.54644,-0.737 25.05824,-0.737 13.51179,-0.24567 35.622,-0.24567 v 30.21729 z M 188.08095,386.62037 q 0,11.54644 -4.42205,21.61887 -4.42204,9.82676 -12.77479,17.19683 -8.35274,7.1244 -20.63619,11.05511 -12.03778,3.9307 -27.26926,3.9307 -8.84409,0 -17.4425,-0.98268 -8.352747,-0.98267 -15.722817,-2.70236 l 3.193697,-28.00626 q 15.72282,4.66771 29.48028,4.66771 15.72282,0 23.58422,-6.63306 7.86141,-6.87874 7.86141,-17.68817 0,-5.40472 -2.21102,-9.82676 -1.96535,-4.42204 -6.38739,-7.61574 -4.42204,-3.1937 -11.30078,-4.91338 -6.87873,-1.71969 -16.21415,-1.71969 -8.10708,0 -17.933838,0.98268 v -25.05824 h 4.913378 q 11.79211,0 20.14486,-1.71968 8.35275,-1.96535 13.5118,-5.15905 5.15904,-3.1937 7.61573,-7.61574 2.4567,-4.66771 2.4567,-10.3181 0,-9.33542 -6.3874,-14.49447 -6.14172,-5.40472 -17.93384,-5.40472 -7.1244,0 -14.49447,1.71969 -7.37007,1.71968 -14.003131,4.66771 l -3.193697,-25.79525 q 9.089748,-3.43936 18.916518,-5.15905 10.07242,-1.96535 20.14485,-1.96535 12.28345,0 21.86455,2.94803 9.58109,2.94803 15.72281,8.35274 6.3874,5.40472 9.58109,12.77479 3.1937,7.1244 3.1937,15.96849 0,13.26612 -7.37007,23.09289 -7.37007,9.82676 -20.14486,14.49447 v 0.24567 q 15.23148,3.43936 24.32123,14.00313 9.33543,10.56377 9.33543,25.05824 z m 172.45956,0 q 0,11.54644 -4.42204,21.61887 -4.42204,9.82676 -12.77479,17.19683 -8.35275,7.1244 -20.6362,11.05511 -12.03778,3.9307 -27.26926,3.9307 -8.84408,0 -17.4425,-0.98268 -8.35274,-0.98267 -15.72281,-2.70236 l 3.19369,-28.00626 q 15.72282,4.66771 29.48028,4.66771 15.72282,0 23.58423,-6.63306 7.86141,-6.87874 7.86141,-17.68817 0,-5.40472 -2.21102,-9.82676 -1.96536,-4.42204 -6.3874,-7.61574 -4.42204,-3.1937 -11.30077,-4.91338 -6.87873,-1.71969 -16.21416,-1.71969 -8.10707,0 -17.93383,0.98268 v -25.05824 h 4.91338 q 11.79211,0 20.14485,-1.71968 8.35275,-1.96535 13.5118,-5.15905 5.15905,-3.1937 7.61574,-7.61574 2.45669,-4.66771 2.45669,-10.3181 0,-9.33542 -6.38739,-14.49447 -6.14173,-5.40472 -17.93384,-5.40472 -7.1244,0 -14.49447,1.71969 -7.37007,1.71968 -14.00314,4.66771 l -3.19369,-25.79525 q 9.08975,-3.43936 18.91651,-5.15905 10.07243,-1.96535 20.14486,-1.96535 12.28345,0 21.86454,2.94803 9.58109,2.94803 15.72282,8.35274 6.38739,5.40472 9.58109,12.77479 3.19369,7.1244 3.19369,15.96849 0,13.26612 -7.37007,23.09289 -7.37007,9.82676 -20.14485,14.49447 v 0.24567 q 15.23147,3.43936 24.32123,14.00313 9.33542,10.56377 9.33542,25.05824 z m 140.27692,-69.27866 0.24567,-21.37321 -42.99207,76.8944 q 5.15905,-0.24567 13.26612,-0.24567 8.35275,-0.24566 15.47715,-0.24566 7.1244,0 14.00313,0 z m 30.46296,83.28179 v 37.34169 H 500.3261 V 400.6235 h -69.033 l -3.19369,-26.28658 57.48655,-102.19831 h 45.69443 v 100.23296 h 24.81257 v 28.25193 z m 159.43939,-83.28179 0.24567,-21.37321 -42.99208,76.8944 q 5.15905,-0.24567 13.26613,-0.24567 8.35274,-0.24566 15.47714,-0.24566 7.12441,0 14.00314,0 z m 30.46295,83.28179 v 37.34169 H 690.22844 V 400.6235 h -69.03299 l -3.1937,-26.28658 57.48655,-102.19831 h 45.69443 V 372.37157 H 745.9953 V 400.6235 Z M 186.8526,578.94852 q 0,12.52912 -4.66771,23.09289 -4.42204,10.3181 -13.02046,17.93384 -8.59841,7.61574 -20.63619,11.79211 -12.03779,3.9307 -27.0236,3.9307 -8.10707,0 -16.21415,-0.98267 -8.107077,-0.73701 -14.74014,-2.21102 l 3.439366,-28.25194 q 6.633064,2.21102 14.003134,3.43937 7.37007,0.98267 14.98581,0.98267 14.2488,0 22.35588,-6.63306 8.10708,-6.87873 8.10708,-19.16218 0,-12.77479 -9.82677,-19.65352 -9.58109,-6.87874 -29.23461,-6.87874 -8.84408,0 -18.425172,0.73701 v -89.66919 h 81.562112 v 29.97162 l -52.08183,-0.24567 v 33.65666 h 4.17637 q 26.53225,0 41.76373,13.02046 15.47715,13.02045 15.47715,35.13066 z m 168.77467,0 q 0,12.52912 -4.66771,23.09289 -4.42204,10.3181 -13.02045,17.93384 -8.59842,7.61574 -20.6362,11.79211 -12.03778,3.9307 -27.02359,3.9307 -8.10708,0 -16.21416,-0.98267 -8.10707,-0.73701 -14.74014,-2.21102 l 3.43937,-28.25194 q 6.63306,2.21102 14.00313,3.43937 7.37007,0.98267 14.98581,0.98267 14.2488,0 22.35588,-6.63306 8.10708,-6.87873 8.10708,-19.16218 0,-12.77479 -9.82676,-19.65352 -9.58109,-6.87874 -29.23461,-6.87874 -8.84409,0 -18.42518,0.73701 v -89.66919 h 81.56211 v 29.97162 l -52.08183,-0.24567 v 33.65666 h 4.17638 q 26.53225,0 41.76373,13.02046 15.47714,13.02045 15.47714,35.13066 z m 158.94792,3.1937 q 0,-12.03778 -6.87874,-19.65352 -6.87873,-7.86141 -19.16218,-7.86141 -11.79211,0 -18.91651,7.61574 -6.87873,7.37007 -6.87873,18.67085 0,13.51179 7.37007,20.88186 7.37007,7.37007 18.42517,7.37007 11.54645,0 18.67085,-7.61574 7.37007,-7.61574 7.37007,-19.40785 z m 32.91964,-4.17637 q 0,12.77479 -4.42204,23.58422 -4.42204,10.56377 -12.52912,18.42518 -8.10708,7.61574 -19.40785,11.79211 -11.0551,4.17637 -24.07556,4.17637 -16.21416,0 -27.7606,-5.65038 -11.54644,-5.89606 -18.67084,-16.21416 -6.87874,-10.3181 -10.07243,-23.58422 -2.94803,-13.5118 -2.94803,-29.72595 0,-23.8299 5.40472,-41.76373 5.65038,-17.93384 16.21415,-29.97162 10.56377,-12.03778 26.04092,-17.93384 15.72281,-6.14173 35.86767,-6.14173 5.65039,0 11.79211,0.49134 6.3874,0.24567 11.79212,0.98268 l -2.21103,28.00627 q -5.40471,-0.98268 -11.79211,-1.47402 -6.38739,-0.73701 -11.79211,-0.73701 -11.54644,0 -20.14486,2.94803 -8.35275,2.94803 -14.00313,8.59842 -6.14173,6.14172 -9.08976,13.75746 -2.94802,7.61574 -4.42204,16.45983 -1.47401,8.84408 -1.71968,9.58109 h 0.24567 q 5.65039,-6.63307 15.23148,-10.80944 9.82676,-4.17637 21.3732,-4.17637 11.79211,0 21.12753,3.68503 9.5811,3.43937 16.21416,10.07243 6.87873,6.63306 10.3181,15.72282 3.43936,9.08975 3.43936,19.89919 z m 160.91309,4.17637 q 0,-12.03778 -6.87873,-19.65352 -6.87873,-7.86141 -19.16218,-7.86141 -11.79212,0 -18.91652,7.61574 -6.87873,7.37007 -6.87873,18.67085 0,13.51179 7.37007,20.88186 7.37007,7.37007 18.42518,7.37007 11.54644,0 18.67084,-7.61574 7.37007,-7.61574 7.37007,-19.40785 z m 32.91965,-4.17637 q 0,12.77479 -4.42205,23.58422 -4.42204,10.56377 -12.52911,18.42518 -8.10708,7.61574 -19.40786,11.79211 -11.0551,4.17637 -24.07556,4.17637 -16.21415,0 -27.7606,-5.65038 -11.54644,-5.89606 -18.67084,-16.21416 -6.87873,-10.3181 -10.07243,-23.58422 -2.94803,-13.5118 -2.94803,-29.72595 0,-23.8299 5.40472,-41.76373 5.65039,-17.93384 16.21415,-29.97162 10.56377,-12.03778 26.04092,-17.93384 15.72282,-6.14173 35.86767,-6.14173 5.65039,0 11.79212,0.49134 6.38739,0.24567 11.79211,0.98268 l -2.21102,28.00627 q -5.40472,-0.98268 -11.79211,-1.47402 -6.3874,-0.73701 -11.79212,-0.73701 -11.54644,0 -20.14486,2.94803 -8.35274,2.94803 -14.00313,8.59842 -6.14172,6.14172 -9.08975,13.75746 -2.94803,7.61574 -4.42204,16.45983 -1.47402,8.84408 -1.71969,9.58109 h 0.24567 q 5.65039,-6.63307 15.23148,-10.80944 9.82676,-4.17637 21.3732,-4.17637 11.79212,0 21.12754,3.68503 9.58109,3.43937 16.21415,10.07243 6.87873,6.63306 10.3181,15.72282 3.43937,9.08975 3.43937,19.89919 z"
       id="text1-2"
       transform="matrix(0.26458333,0,0,0.26458333,-5.638393,110.94205)"
       aria-label="1 1 2 2 3 3 4 4 5 5 6 6" />
    <text
       xml:space="preserve"
       transform="scale(0.26458333)"
       id="text2"
       style="font-style:normal;font-weight:normal;font-size:40px;line-height:1.25;font-family:sans-serif;letter-spacing:0px;word-spacing:0px;white-space:pre;shape-inside:url(#rect2);display:inline;fill:#000000;fill-opacity:1;stroke:none" />
  </g>
</svg>
